<?xml version="1.0" encoding="utf-8"?>
<!-- Generator: Adobe Illustrator 15.1.0, SVG Export Plug-In . SVG Version: 6.00 Build 0)  -->
<!DOCTYPE svg PUBLIC "-//W3C//DTD SVG 1.1//EN" "http://www.w3.org/Graphics/SVG/1.1/DTD/svg11.dtd">
<svg version="1.1" id="Layer_1" xmlns="http://www.w3.org/2000/svg" xmlns:xlink="http://www.w3.org/1999/xlink" x="0px" y="0px"
	 width="200px" height="200px" viewBox="0 0 200 200" enable-background="new 0 0 200 200" xml:space="preserve">
<path fill="#00CC4A" d="M144.732,48.836c9.558,0,17.306-7.748,17.306-17.306c0-9.558-7.748-17.306-17.306-17.306
	c-9.56,0-17.308,7.748-17.308,17.306C127.426,41.088,135.174,48.836,144.732,48.836z M158.156,63.773
	c-12.91-15.932-37.631-15.107-49.992-8.79c-12.362,6.317-46.427,41.205-50.27,45.875c0,8.24,12.908,18.953,12.908,18.953
	c19.505-26.644,46.426-45.599,60.159-45.599c17.307,1.924,15.109,21.151,13.462,26.096c1.649,5.219,11.538,10.438,19.228,12.911
	C173.266,106.077,171.068,79.706,158.156,63.773z M19.229,143.297c11.331,4.533,23.28-3.09,27.401-5.355
	c-5.357-3.709-14.422-18.75-14.422-18.75c-3.502-0.205-14.009,1.855-14.009,1.854l13.391,11.125
	C31.59,132.171,23.762,139.794,19.229,143.297z M19.985,157.719l12.084,10.715c0,0-9.612,10.166-14.283,11.264
	c4.671,1.099,82.409,2.473,126.909-41.204c-7.144-4.12-17.305-14.284-17.305-14.284S80.144,160.742,19.985,157.719z"/>
<path fill="#039ED4" d="M53.258,48.424c9.558,0,17.306-7.748,17.306-17.306s-7.748-17.306-17.306-17.306
	c-9.558,0-17.306,7.748-17.306,17.306S43.7,48.424,53.258,48.424z M78.357,75.104c0,0,10.919-11.743,16.894-15.864
	C57.549,35.547,27.264,65.833,28.706,95.5c1.442,29.668,31.315,50.475,36.26,52.742c4.944,2.267,29.049-8.653,29.049-8.653
	c-25.959-9.889-40.381-31.935-42.029-42.853C51.162,66.863,78.357,75.104,78.357,75.104z M179.102,143.71
	c-4.531-2.06-12.979-12.772-12.979-12.772s4.945-3.916,14.216-9.685c-26.577,2.062-58.098-37.29-60.571-39.968
	c-4.943,0.618-17.718,12.567-17.718,12.567C144.078,144.533,169.625,144.738,179.102,143.71z M177.866,157.514
	c-13.392,1.441-38.732-3.091-44.501-4.533c-6.799,7.004-22.25,13.599-27.813,14.422C118.736,177.703,180.133,181,180.133,181
	l-15.658-13.186L177.866,157.514z"/>
<polygon fill="#FF0000" points="111.322,112.87 101.576,112.87 101.576,103.123 94.694,103.123 94.694,112.87 84.95,112.87 
	84.95,119.75 94.694,119.75 94.694,129.494 101.576,129.494 101.576,119.75 111.322,119.75 "/>
</svg>
